<svg width="90" height="36" viewBox="0 0 90 36" fill="none" xmlns="http://www.w3.org/2000/svg">
  <path d="M26.5678 12.9011C26.5678 5.79964 20.7727 0.0175934 13.6486 0.0175934H0.729492V35.3491H6.11884V25.7847H13.6486C13.9574 25.7847 14.2661 25.77 14.6013 25.7436L21.3637 35.3491H27.9497L20.0259 24.0958C24.0275 21.8176 26.5678 17.5162 26.5678 12.9011ZM21.1784 12.9011C21.1784 17.0412 17.8002 20.4102 13.6486 20.4102H6.11884V5.39208H13.6486C17.8002 5.39208 21.1784 8.76104 21.1784 12.9011Z" fill="#006EB2"/>
  <path d="M84.8891 15.9915C86.4239 14.244 87.2883 11.9775 87.2883 9.64066C87.2883 4.32481 82.9516 0 77.624 0H62.8613V35.3373H78.5266C84.4511 35.3373 89.273 30.5317 89.273 24.6206C89.273 21.2253 87.6147 17.9971 84.8921 15.9915H84.8891ZM68.2507 13.9039V5.37449H77.624C79.982 5.37449 81.9019 7.28913 81.9019 9.64066C81.9019 11.9922 79.982 13.9039 77.624 13.9039H68.2507ZM83.8807 24.6206C83.8807 27.5674 81.4785 29.9629 78.5237 29.9629H68.2477V19.2784H78.5237C81.4785 19.2784 83.8807 21.6739 83.8807 24.6206Z" fill="#006EB2"/>
  <path d="M53.9351 27.6025L58.1483 23.2631L54.3437 19.5833L45.2204 28.9748C44.1443 30.0772 42.6977 30.6959 41.1453 30.7164C41.1188 30.7164 41.0924 30.7164 41.0688 30.7164C39.5488 30.7164 38.114 30.1359 37.029 29.0803C35.9206 28.0013 35.3002 26.5587 35.2796 25.0165C35.259 23.4742 35.8441 22.014 36.9232 20.9086L38.0257 19.7798L42.4184 23.958L46.1171 20.1727L38.6373 13.0624C37.8582 12.2326 37.4965 11.2592 37.4965 9.99251C37.4965 7.40349 39.6076 5.29533 42.2037 5.29533H43.2887V0.0146637H42.2037C36.685 0.0146637 32.1954 4.49194 32.1954 9.99544C32.1954 12.3235 32.8863 14.3672 34.2476 16.0736L33.1274 17.2201C31.0605 19.337 29.9432 22.1313 29.9814 25.0839C30.0196 28.0394 31.2104 30.8014 33.3332 32.8627C35.4119 34.8829 38.161 35.9971 41.0718 35.9971C43.9826 35.9971 46.9198 34.8096 49.025 32.6545L50.251 31.3937L54.4966 35.3491L58.1542 31.5257L53.9409 27.5996L53.9351 27.6025Z" fill="#006EB2"/>
</svg>
